<svg xmlns="http://www.w3.org/2000/svg" viewBox="0 0 512 512" fill="none">
  <defs>
    <linearGradient id="bg" x1="0" y1="0" x2="512" y2="512" gradientUnits="userSpaceOnUse">
      <stop offset="0%" stop-color="#080c14"/>
      <stop offset="50%" stop-color="#0d1f3c"/>
      <stop offset="100%" stop-color="#1d4ed8"/>
    </linearGradient>
    <radialGradient id="glow-rigel" cx="50%" cy="50%" r="50%">
      <stop offset="0%" stop-color="#ffffff" stop-opacity="1"/>
      <stop offset="40%" stop-color="#dbeafe" stop-opacity="0.7"/>
      <stop offset="100%" stop-color="#3b82f6" stop-opacity="0"/>
    </radialGradient>
    <radialGradient id="glow-center" cx="50%" cy="52%" r="40%">
      <stop offset="0%" stop-color="#3b82f6" stop-opacity="0.15"/>
      <stop offset="100%" stop-color="#3b82f6" stop-opacity="0"/>
    </radialGradient>
  </defs>
  <rect width="512" height="512" rx="96" fill="url(#bg)"/>
  <rect x="3" y="3" width="506" height="506" rx="93" stroke="rgba(59,130,246,0.3)" stroke-width="3" fill="none"/>
  <circle cx="256" cy="270" r="180" fill="url(#glow-center)"/>
  <line x1="112" y1="144" x2="368" y2="144" stroke="#3b82f6" stroke-width="6" stroke-opacity="0.5"/>
  <line x1="112" y1="144" x2="160" y2="272" stroke="#3b82f6" stroke-width="5" stroke-opacity="0.4"/>
  <line x1="368" y1="144" x2="352" y2="272" stroke="#3b82f6" stroke-width="5" stroke-opacity="0.4"/>
  <line x1="160" y1="272" x2="256" y2="256" stroke="#60a5fa" stroke-width="7" stroke-opacity="0.7"/>
  <line x1="256" y1="256" x2="352" y2="272" stroke="#60a5fa" stroke-width="7" stroke-opacity="0.7"/>
  <line x1="160" y1="272" x2="160" y2="416" stroke="#3b82f6" stroke-width="5" stroke-opacity="0.38"/>
  <line x1="352" y1="272" x2="384" y2="416" stroke="#3b82f6" stroke-width="5" stroke-opacity="0.38"/>
  <circle cx="112" cy="144" r="28" fill="#3b82f6" fill-opacity="0.3"/>
  <circle cx="112" cy="144" r="18" fill="#93c5fd"/>
  <circle cx="112" cy="144" r="10" fill="#dbeafe"/>
  <circle cx="368" cy="144" r="20" fill="#60a5fa"/>
  <circle cx="368" cy="144" r="12" fill="#bfdbfe"/>
  <circle cx="160" cy="272" r="17" fill="#93c5fd"/>
  <circle cx="256" cy="256" r="22" fill="#e0f2fe"/>
  <circle cx="256" cy="256" r="12" fill="#ffffff" fill-opacity="0.8"/>
  <circle cx="352" cy="272" r="17" fill="#93c5fd"/>
  <circle cx="384" cy="416" r="40" fill="url(#glow-rigel)" fill-opacity="0.3"/>
  <circle cx="384" cy="416" r="28" fill="#dbeafe" fill-opacity="0.6"/>
  <circle cx="384" cy="416" r="18" fill="#dbeafe"/>
  <circle cx="384" cy="416" r="9" fill="#ffffff"/>
  <circle cx="160" cy="416" r="20" fill="#60a5fa"/>
  <circle cx="160" cy="416" r="10" fill="#93c5fd"/>
  <circle cx="48" cy="64" r="3.5" fill="white" fill-opacity="0.25"/>
  <circle cx="448" cy="80" r="3.5" fill="white" fill-opacity="0.2"/>
  <circle cx="464" cy="320" r="3" fill="white" fill-opacity="0.18"/>
  <circle cx="64" cy="448" r="3" fill="white" fill-opacity="0.18"/>
  <circle cx="288" cy="48" r="2.5" fill="white" fill-opacity="0.15"/>
  <circle cx="480" cy="192" r="2.5" fill="white" fill-opacity="0.15"/>
  <text x="256" y="496" text-anchor="middle" font-family="'DM Sans',Arial,sans-serif" font-size="22" font-weight="700" letter-spacing="8" fill="rgba(59,130,246,0.35)">ORION</text>
</svg>
